<svg t="1597925943098" class="icon" viewBox="0 0 1024 1024" version="1.1" xmlns="http://www.w3.org/2000/svg" p-id="2442" width="32" height="32">
    <path d="M959.953665 97.695815l-56.954109 106.548978-8.959073-4.799503-107.188913-55.994208-4.799504-2.559735L840.286043 32.102599l59.833811 32.956591z" fill="#E0EBFE" p-id="2443"></path>
    <path d="M709.099613 567.727196l-8.31914 15.678378L575.993381 672.036406l4.799503-154.224047 129.906563-242.85488 71.352619-134.066132 4.799504 2.559735 107.188913 55.994208 8.959073 4.799503-72.632487 136.305901z" fill="#E0EBFE" p-id="2444"></path>
    <path d="M548.796194 516.820461l-4.799504 154.224048a31.964694 31.964694 0 0 0 50.554771 27.0692l124.755096-88.630832a31.99669 31.99669 0 0 0 9.726994-11.070855l259.141195-485.645766a31.99669 31.99669 0 0 0-12.894667-43.195532L855.708448 4.105495a32.060684 32.060684 0 0 0-43.643486 12.926663l-259.493159 485.70976a31.99669 31.99669 0 0 0-3.775609 14.078543z m304.416512-441.074376l63.577424 34.876392-34.492433 64.633315-64.313347-33.596525 35.228356-65.913182z m-50.298797 94.16626l64.313347 33.596525-179.021482 335.485298-64.537325-33.532532 179.24546-335.549291z m-190.668278 365.62618l58.233976 30.172879-60.505741 42.971555 2.271765-73.144434z"
          fill="#5465CF" p-id="2445"></path>
    <path d="M96.043026 1024h703.927187c52.922526 0 95.990071-43.067545 95.990071-95.990071V549.489082a31.99669 31.99669 0 0 0-63.993381 0V928.009929c0 17.662173-14.366514 31.99669-31.99669 31.99669H96.043026c-17.630176 0-31.99669-14.334517-31.996691-31.99669V224.082741c0-17.630176 14.366514-31.99669 31.996691-31.99669h530.825092a31.99669 31.99669 0 0 0 0-63.993381H96.043026C43.1205 128.09267 0.052955 171.160216 0.052955 224.082741v703.927188c0 52.922526 43.067545 95.990071 95.990071 95.990071z"
          fill="#5465CF" p-id="2446"></path>
</svg>