<svg t="1597926010506" class="icon" viewBox="0 0 1024 1024" version="1.1" xmlns="http://www.w3.org/2000/svg" p-id="6244" width="32" height="32">
    <path d="M525.741419 20.612129l51.728516 77.576258A16.516129 16.516129 0 0 1 563.695484 123.870968H460.304516a16.516129 16.516129 0 0 1-13.757935-25.682581l51.728516-77.576258a16.516129 16.516129 0 0 1 27.482838 0z" fill="#0069F6" p-id="6245"></path>
    <path d="M66.064516 148.645161m24.774194 0l842.32258 0q24.774194 0 24.774194 24.774194l0 0q0 24.774194-24.774194 24.774193l-842.32258 0q-24.774194 0-24.774194-24.774193l0 0q0-24.774194 24.774194-24.774194Z" fill="#0069F6" p-id="6246"></path>
    <path d="M801.032258 264.258065a24.774194 24.774194 0 0 1 49.548387 0v672.206451c0 43.041032-31.298065 79.277419-71.845161 79.277419h-533.470968c-40.547097 0-71.845161-36.236387-71.845161-79.277419V264.258065a24.774194 24.774194 0 0 1 49.548387 0v672.206451c0 17.160258 10.851097 29.729032 22.296774 29.729032h533.470968c11.445677 0 22.296774-12.568774 22.296774-29.729032V264.258065z"
          fill="#0069F6" p-id="6247"></path>
    <path d="M412.903226 445.935484m24.774193 0l0 0q24.774194 0 24.774194 24.774193l0 313.806452q0 24.774194-24.774194 24.774194l0 0q-24.774194 0-24.774193-24.774194l0-313.806452q0-24.774194 24.774193-24.774193Z" fill="#5ED7BC" p-id="6248"></path>
    <path d="M561.548387 445.935484m24.774194 0l0 0q24.774194 0 24.774193 24.774193l0 313.806452q0 24.774194-24.774193 24.774194l0 0q-24.774194 0-24.774194-24.774194l0-313.806452q0-24.774194 24.774194-24.774193Z" fill="#5ED7BC" p-id="6249"></path>
</svg>