<svg t="1597926101291" class="icon" viewBox="0 0 1024 1024" version="1.1" xmlns="http://www.w3.org/2000/svg" p-id="7346" width="32" height="32">
    <path d="M512 512m-480.0512 0a480.0512 480.0512 0 1 0 960.1024 0 480.0512 480.0512 0 1 0-960.1024 0Z" fill="#F0EEE2" p-id="7347"></path>
    <path d="M736.0512 480.0512H543.9488V287.9488h-63.8976v192.1024H287.9488v63.8976h192.1024v192.1024h63.8976V543.9488h192.1024z" fill="#BBAA9C" p-id="7348"></path>
    <path d="M864.0512 527.9744c8.8064 0 15.9744-7.168 15.9744-15.9744s-7.168-15.9744-15.9744-15.9744-15.9744 7.168-15.9744 15.9744 7.0656 15.9744 15.9744 15.9744z m47.9232 224.0512h-79.9744c-8.8064 0.2048-15.7696 7.5776-15.5648 16.384 0.2048 8.4992 7.0656 15.36 15.5648 15.5648h79.9744c8.8064-0.2048 15.7696-7.5776 15.5648-16.384-0.2048-8.4992-7.0656-15.36-15.5648-15.5648z m-320-256h-64c-8.8064 0-15.9744 7.168-15.9744 15.9744s7.168 15.9744 15.9744 15.9744h64c8.8064 0 15.9744-7.168 15.9744-15.9744s-7.168-15.9744-15.9744-15.9744zM304.0256 271.9744h-31.9488c-8.8064 0-15.9744 7.168-15.9744 15.9744s7.168 15.9744 15.9744 15.9744h31.9488c8.8064 0 15.9744-7.168 15.9744-15.9744s-7.168-15.9744-15.9744-15.9744z m448 64h-64c-8.8064 0-15.9744 7.168-15.9744 15.9744s7.168 15.9744 15.9744 15.9744h64c8.8064 0 15.9744-7.168 15.9744-15.9744s-7.168-15.9744-15.9744-15.9744z m-256-15.9744h-15.9744c-8.8064 0.2048-15.7696 7.5776-15.5648 16.384 0.2048 8.4992 7.0656 15.36 15.5648 15.5648h15.9744c8.8064-0.2048 15.7696-7.5776 15.5648-16.384-0.2048-8.4992-7.0656-15.36-15.5648-15.5648z m192-143.9744h128c8.8064 0 15.9744-7.168 15.9744-15.9744s-7.168-15.9744-15.9744-15.9744h-128c-8.8064 0-15.9744 7.168-15.9744 15.9744s7.168 15.9744 15.9744 15.9744z m-512 432.0256c8.8064 0 15.9744-7.168 15.9744-15.9744s-7.168-15.9744-15.9744-15.9744h-32.0512c-8.8064 0-15.9744 7.168-15.9744 15.9744s7.168 15.9744 15.9744 15.9744h32.0512z m495.9232 239.9232h-48.0256c-8.8064 0-15.9744 7.168-15.9744 15.9744s7.168 15.9744 15.9744 15.9744h48.0256c8.8064 0 15.9744-7.168 15.9744-15.9744s-7.0656-15.9744-15.9744-15.9744z m-384-31.9488h-128c-8.8064-0.2048-16.1792 6.7584-16.384 15.5648-0.2048 8.8064 6.7584 16.1792 15.5648 16.384h128.8192c8.8064 0.2048 16.1792-6.7584 16.384-15.5648s-6.7584-16.1792-15.5648-16.384h-0.8192z m160.0512-192h-48.0256c-8.8064 0-15.9744 7.168-15.9744 15.9744s7.168 15.9744 15.9744 15.9744h48.0256c8.8064 0 15.9744-7.168 15.9744-15.9744s-7.168-15.9744-15.9744-15.9744z"
          fill="#D8D5BA" p-id="7349"></path>
    <path d="M864.0512 527.9744c8.8064 0 15.9744-7.168 15.9744-15.9744s-7.168-15.9744-15.9744-15.9744-15.9744 7.168-15.9744 15.9744 7.0656 15.9744 15.9744 15.9744z m47.9232 224.0512h-79.9744c-8.8064 0.2048-15.7696 7.5776-15.5648 16.384 0.2048 8.4992 7.0656 15.36 15.5648 15.5648h79.9744c8.8064-0.2048 15.7696-7.5776 15.5648-16.384-0.2048-8.4992-7.0656-15.36-15.5648-15.5648z m-320-256h-64c-8.8064 0-15.9744 7.168-15.9744 15.9744s7.168 15.9744 15.9744 15.9744h64c8.8064 0 15.9744-7.168 15.9744-15.9744s-7.168-15.9744-15.9744-15.9744zM304.0256 271.9744h-31.9488c-8.8064 0-15.9744 7.168-15.9744 15.9744s7.168 15.9744 15.9744 15.9744h31.9488c8.8064 0 15.9744-7.168 15.9744-15.9744s-7.168-15.9744-15.9744-15.9744z m448 64h-64c-8.8064 0-15.9744 7.168-15.9744 15.9744s7.168 15.9744 15.9744 15.9744h64c8.8064 0 15.9744-7.168 15.9744-15.9744s-7.168-15.9744-15.9744-15.9744z m-256-15.9744h-15.9744c-8.8064 0.2048-15.7696 7.5776-15.5648 16.384 0.2048 8.4992 7.0656 15.36 15.5648 15.5648h15.9744c8.8064-0.2048 15.7696-7.5776 15.5648-16.384-0.2048-8.4992-7.0656-15.36-15.5648-15.5648z m192-143.9744h128c8.8064 0 15.9744-7.168 15.9744-15.9744s-7.168-15.9744-15.9744-15.9744h-128c-8.8064 0-15.9744 7.168-15.9744 15.9744s7.168 15.9744 15.9744 15.9744z m-512 432.0256c8.8064 0 15.9744-7.168 15.9744-15.9744s-7.168-15.9744-15.9744-15.9744h-32.0512c-8.8064 0-15.9744 7.168-15.9744 15.9744s7.168 15.9744 15.9744 15.9744h32.0512z m495.9232 239.9232h-48.0256c-8.8064 0-15.9744 7.168-15.9744 15.9744s7.168 15.9744 15.9744 15.9744h48.0256c8.8064 0 15.9744-7.168 15.9744-15.9744s-7.0656-15.9744-15.9744-15.9744z m-384-31.9488h-128c-8.8064-0.2048-16.1792 6.7584-16.384 15.5648-0.2048 8.8064 6.7584 16.1792 15.5648 16.384h128.8192c8.8064 0.2048 16.1792-6.7584 16.384-15.5648s-6.7584-16.1792-15.5648-16.384h-0.8192z m160.0512-192h-48.0256c-8.8064 0-15.9744 7.168-15.9744 15.9744s7.168 15.9744 15.9744 15.9744h48.0256c8.8064 0 15.9744-7.168 15.9744-15.9744s-7.168-15.9744-15.9744-15.9744z"
          fill="#D8D5BA" p-id="7350"></path>
    <path d="M736.0512 448H576V287.9488c0-17.7152-14.336-31.9488-31.9488-31.9488h-64c-17.7152 0-31.9488 14.336-31.9488 31.9488v159.9488H287.9488c-17.7152 0-31.9488 14.336-31.9488 31.9488v64c0 17.7152 14.336 31.9488 31.9488 31.9488h159.9488v159.9488c0 17.7152 14.336 31.9488 31.9488 31.9488h64c17.7152 0 31.9488-14.336 31.9488-31.9488v-159.744h159.9488c17.7152 0 31.9488-14.336 31.9488-31.9488v-64c0.3072-17.7152-14.0288-32.0512-31.6416-32.0512z m0 95.9488H543.9488v192h-64V543.9488H287.9488v-64h192V287.9488h64v192h192v64zM512 0C229.2736 0 0 229.2736 0 512s229.2736 512 512 512 512-229.2736 512-512S794.7264 0 512 0z m0 960.1024C264.4992 960.1024 63.8976 759.5008 63.8976 512S264.4992 63.8976 512 63.8976 960.1024 264.4992 960.1024 512 759.5008 960.1024 512 960.1024z"
          fill="#5F4E56" p-id="7351"></path>
</svg>